<svg width="367" height="364" viewBox="0 0 367 364" fill="none" xmlns="http://www.w3.org/2000/svg">
<rect x="61.0657" y="62.1116" width="240.019" height="240.566" stroke="white" stroke-width="1.39703"/>
<path d="M62.5078 63.375L299.655 301.459" stroke="white" stroke-width="1.39703"/>
<path d="M62.1328 301.459L299.842 63.3748" stroke="white" stroke-width="1.39703"/>
<rect x="11.1441" y="182.152" width="240.019" height="240.566" transform="rotate(-45 11.1441 182.152)" stroke="white" stroke-width="1.39703"/>
<path d="M12.6367 182.417L348.767 182.417" stroke="white" stroke-width="1.39703"/>
<path d="M181.176 350.763L180.801 13.1328" stroke="white" stroke-width="1.39703"/>
<rect x="1.06245" width="136.561" height="136.375" transform="matrix(0.708422 -0.705789 0.708422 0.705789 84.9309 184.251)" stroke="white" stroke-width="1.49974"/>
<path d="M200.237 182.22C200.237 171.349 191.392 162.541 180.488 162.541C169.583 162.541 160.738 171.349 160.738 182.22C160.738 193.09 169.583 201.898 180.488 201.898C191.392 201.898 200.237 193.09 200.237 182.22Z" fill="#FDFD82" stroke="#E3DC35" stroke-width="1.49974"/>
<path d="M316.11 182.445C316.11 176.248 311.068 171.227 304.852 171.227C298.635 171.227 293.594 176.248 293.594 182.445C293.594 188.641 298.635 193.662 304.852 193.662C311.068 193.662 316.11 188.641 316.11 182.445Z" fill="#F9C572" stroke="#D48A33" stroke-width="0.749872"/>
<path d="M281.277 182.445C281.277 176.248 276.236 171.227 270.02 171.227C263.803 171.227 258.762 176.248 258.762 182.445C258.762 188.641 263.803 193.662 270.02 193.662C276.236 193.662 281.277 188.641 281.277 182.445Z" fill="url(#paint0_linear_667_1604)" stroke="#645757" stroke-width="0.749872"/>
<path d="M340.594 182.445C340.594 176.248 335.552 171.227 329.336 171.227C323.12 171.227 318.078 176.248 318.078 182.445C318.078 188.641 323.12 193.662 329.336 193.662C335.552 193.662 340.594 188.641 340.594 182.445Z" fill="url(#paint1_linear_667_1604)" stroke="#DAAE58" stroke-width="0.749872"/>
<path d="M365.457 182.445C365.457 176.04 360.246 170.852 353.824 170.852C347.402 170.852 342.192 176.04 342.192 182.445C342.192 188.85 347.402 194.037 353.824 194.037C360.246 194.037 365.457 188.85 365.457 182.445Z" fill="#E15E5E" stroke="#C33F4F" stroke-width="1.49974"/>
<path d="M50.3671 182.445C50.3671 176.248 55.4087 171.227 61.6249 171.227C67.8411 171.227 72.8827 176.248 72.8827 182.445C72.8827 188.641 67.8411 193.662 61.6249 193.662C55.4087 193.662 50.3671 188.641 50.3671 182.445Z" fill="#6CCFF9" stroke="#098FB9" stroke-width="0.749872"/>
<path d="M84.1014 182.445C84.1014 176.248 89.1431 171.227 95.3593 171.227C101.575 171.227 106.617 176.248 106.617 182.445C106.617 188.641 101.575 193.662 95.3593 193.662C89.1431 193.662 84.1014 188.641 84.1014 182.445Z" fill="#B1FFC3" stroke="#48C76C" stroke-width="0.749872"/>
<path d="M180.605 84.0563C174.389 84.0563 169.348 89.0772 169.348 95.2737C169.348 101.47 174.389 106.491 180.605 106.491C186.822 106.491 191.863 101.47 191.863 95.2737C191.863 89.0772 186.822 84.0563 180.605 84.0563Z" fill="#68F5A0" stroke="#07A95B" stroke-width="0.749872"/>
<path d="M180.605 281.055C174.389 281.055 169.348 276.034 169.348 269.838C169.348 263.641 174.389 258.62 180.605 258.62C186.822 258.62 191.863 263.641 191.863 269.838C191.863 276.034 186.822 281.055 180.605 281.055Z" fill="url(#paint2_linear_667_1604)" stroke="#645757" stroke-width="0.749872"/>
<path d="M25.8749 182.445C25.8749 176.248 30.9165 171.227 37.1327 171.227C43.3489 171.227 48.3906 176.248 48.3906 182.445C48.3906 188.641 43.3489 193.662 37.1327 193.662C30.9165 193.662 25.8749 188.641 25.8749 182.445Z" fill="#8D89F1" stroke="#4D3FA5" stroke-width="0.749872"/>
<path d="M1.01555 182.445C1.01555 176.04 6.22636 170.852 12.6483 170.852C19.0703 170.852 24.2811 176.04 24.2811 182.445C24.2811 188.85 19.0703 194.037 12.6483 194.037C6.22636 194.037 1.01555 188.85 1.01555 182.445Z" fill="#BF82FB" stroke="#892AC3" stroke-width="1.49974"/>
<path d="M310.344 294.197C305.8 289.67 298.434 289.67 293.891 294.197C289.347 298.724 289.347 306.062 293.891 310.589C298.434 315.116 305.8 315.116 310.344 310.589C314.887 306.062 314.887 298.724 310.344 294.197Z" fill="#BEC0FF" stroke="#556390" stroke-width="1.49974"/>
<path d="M55.7264 72.2917C51.183 67.7652 51.183 60.4262 55.7264 55.8997C60.2698 51.3731 67.6362 51.3731 72.1796 55.8997C76.723 60.4262 76.723 67.7652 72.1796 72.2917C67.6362 76.8183 60.2698 76.8183 55.7264 72.2917Z" fill="#BEC0FF" stroke="#556390" stroke-width="1.49974"/>
<path d="M310.77 56.7048C306.226 52.1782 298.86 52.1782 294.316 56.7048C289.773 61.2313 289.773 68.5703 294.316 73.0968C298.86 77.6234 306.226 77.6234 310.77 73.0968C315.313 68.5703 315.313 61.2313 310.77 56.7048Z" fill="#BEC0FF" stroke="#556390" stroke-width="1.49974"/>
<path d="M56.5467 310.814C52.0033 306.288 52.0033 298.949 56.5467 294.422C61.0901 289.896 68.4565 289.896 72.9999 294.422C77.5433 298.949 77.5433 306.288 72.9999 310.814C68.4565 315.341 61.0901 315.341 56.5467 310.814Z" fill="#BEC0FF" stroke="#556390" stroke-width="1.49974"/>
<path d="M180.601 50.446C174.385 50.446 169.344 55.4669 169.344 61.6634C169.344 67.8599 174.385 72.8808 180.601 72.8808C186.818 72.8808 191.859 67.8599 191.859 61.6634C191.859 55.4669 186.818 50.446 180.601 50.446Z" fill="#6CCFF9" stroke="#098FB9" stroke-width="0.749872"/>
<path d="M180.601 26.4245C174.385 26.4245 169.344 31.4454 169.344 37.6419C169.344 43.8384 174.385 48.8593 180.601 48.8593C186.818 48.8593 191.859 43.8384 191.859 37.6419C191.859 31.4454 186.818 26.4245 180.601 26.4245Z" fill="#8D89F1" stroke="#4D3FA5" stroke-width="0.749872"/>
<path d="M180.605 1.11928C174.096 1.11928 168.814 6.37726 168.814 12.8704C168.814 19.3636 174.096 24.6216 180.605 24.6216C187.114 24.6216 192.397 19.3636 192.397 12.8704C192.397 6.37726 187.114 1.11928 180.605 1.11928Z" fill="#BF82FB" stroke="#892AC3" stroke-width="1.81734"/>
<path d="M180.605 313.582C174.389 313.582 169.348 308.561 169.348 302.365C169.348 296.168 174.389 291.148 180.605 291.148C186.822 291.148 191.863 296.168 191.863 302.365C191.863 308.561 186.822 313.582 180.605 313.582Z" fill="#F9C572" stroke="#D48A33" stroke-width="0.749872"/>
<path d="M180.601 337.603C174.385 337.603 169.344 332.582 169.344 326.385C169.344 320.189 174.385 315.168 180.601 315.168C186.818 315.168 191.859 320.189 191.859 326.385C191.859 332.582 186.818 337.603 180.601 337.603Z" fill="url(#paint3_linear_667_1604)" stroke="#7F683D" stroke-width="0.749872"/>
<path d="M180.605 362.907C174.096 362.907 168.814 357.649 168.814 351.156C168.814 344.663 174.096 339.405 180.605 339.405C187.114 339.405 192.397 344.663 192.397 351.156C192.397 357.649 187.114 362.907 180.605 362.907Z" fill="#E15E5E" stroke="#C33F4F" stroke-width="1.81734"/>
<defs>
<linearGradient id="paint0_linear_667_1604" x1="259.137" y1="182.445" x2="280.903" y2="182.445" gradientUnits="userSpaceOnUse">
<stop stop-color="#E3E3E3"/>
<stop offset="1" stop-color="#767676"/>
</linearGradient>
<linearGradient id="paint1_linear_667_1604" x1="318.453" y1="182.445" x2="340.219" y2="182.445" gradientUnits="userSpaceOnUse">
<stop stop-color="#FFE39D"/>
<stop offset="1" stop-color="#A3863A"/>
</linearGradient>
<linearGradient id="paint2_linear_667_1604" x1="180.605" y1="258.995" x2="180.605" y2="280.68" gradientUnits="userSpaceOnUse">
<stop stop-color="#CDCDCD"/>
<stop offset="1" stop-color="#767676"/>
</linearGradient>
<linearGradient id="paint3_linear_667_1604" x1="180.601" y1="315.543" x2="180.601" y2="337.228" gradientUnits="userSpaceOnUse">
<stop stop-color="#FFE39D"/>
<stop offset="1" stop-color="#A3863A"/>
</linearGradient>
</defs>
</svg>
