<svg viewBox="0 0 977 970" fill="none" xmlns="http://www.w3.org/2000/svg">
<rect x="162.797" y="165.769" width="638.886" height="640.346" stroke="#556390" stroke-width="5"/>
<path d="M166 168.5L798.5 803.5" stroke="#556390" stroke-width="5"/>
<path d="M165 803.5L799 168.5" stroke="#556390" stroke-width="5"/>
<rect x="29.9105" y="485.296" width="638.886" height="640.346" transform="rotate(-45 29.9105 485.296)" stroke="#556390" stroke-width="5"/>
<path d="M33 486L929.5 486" stroke="#556390" stroke-width="5"/>
<path d="M482.5 935L481.499 34.4999" stroke="#556390" stroke-width="5"/>
<rect x="2.83369" width="364.224" height="363.73" transform="matrix(0.708422 -0.705789 0.708422 0.705789 225.793 490.897)" stroke="#556390" stroke-width="4"/>
<path d="M533.348 485.486C533.348 456.492 509.758 433.001 480.674 433.001C451.59 433.001 428 456.492 428 485.486C428 514.48 451.59 537.972 480.674 537.972C509.758 537.972 533.348 514.48 533.348 485.486Z" fill="#FFFFAB" stroke="#ECE76F" stroke-width="4"/>
<path d="M842.388 486.082C842.388 469.555 828.941 456.164 812.362 456.164C795.783 456.164 782.336 469.555 782.336 486.082C782.336 502.609 795.783 516 812.362 516C828.941 516 842.388 502.609 842.388 486.082Z" fill="#FEDAA0" stroke="#EF9D3D" stroke-width="2"/>
<path d="M749.507 486.082C749.507 469.555 736.061 456.164 719.481 456.164C702.902 456.164 689.455 469.555 689.455 486.082C689.455 502.609 702.902 516 719.481 516C736.061 516 749.507 502.609 749.507 486.082Z" fill="#E3E3E3" stroke="#B0B0B0" stroke-width="2"/>
<path d="M907.697 486.082C907.697 469.555 894.25 456.164 877.671 456.164C861.091 456.164 847.645 469.555 847.645 486.082C847.645 502.609 861.091 516 877.671 516C894.25 516 907.697 502.609 907.697 486.082Z" fill="#FFE39D" stroke="#DAAE58" stroke-width="2"/>
<path d="M974.001 486.082C974.001 468.999 960.103 455.164 942.975 455.164C925.847 455.164 911.949 468.999 911.949 486.082C911.949 503.164 925.847 517 942.975 517C960.103 517 974.001 503.164 974.001 486.082Z" fill="#FFA5A5" stroke="#DC6674" stroke-width="4"/>
<path d="M133.612 486.082C133.612 469.555 147.059 456.164 163.638 456.164C180.217 456.164 193.664 469.555 193.664 486.082C193.664 502.609 180.217 516 163.638 516C147.059 516 133.612 502.609 133.612 486.082Z" fill="#A0E2FF" stroke="#07AFE4" stroke-width="2"/>
<path d="M223.598 486.082C223.598 469.555 237.045 456.164 253.624 456.164C270.204 456.164 283.65 469.555 283.65 486.082C283.65 502.609 270.204 516 253.624 516C237.045 516 223.598 502.609 223.598 486.082Z" fill="#B1FFC3" stroke="#48C76C" stroke-width="2"/>
<path d="M480.974 223.671C464.395 223.671 450.948 237.063 450.948 253.59C450.948 270.116 464.395 283.508 480.974 283.508C497.553 283.508 511 270.116 511 253.59C511 237.063 497.553 223.671 480.974 223.671Z" fill="#B1FFC3" stroke="#48C76C" stroke-width="2"/>
<path d="M480.974 749.09C464.395 749.09 450.948 735.699 450.948 719.172C450.948 702.645 464.395 689.254 480.974 689.254C497.553 689.254 511 702.645 511 719.172C511 735.699 497.553 749.09 480.974 749.09Z" fill="#E3E3E3" stroke="#B0B0B0" stroke-width="2"/>
<path d="M68.3033 486.082C68.3033 469.555 81.75 456.164 98.3294 456.164C114.909 456.164 128.355 469.555 128.355 486.082C128.355 502.609 114.909 516 98.3294 516C81.75 516 68.3033 502.609 68.3033 486.082Z" fill="#C1BFFF" stroke="#7464D3" stroke-width="2"/>
<path d="M2.00255 486.082C2.00255 468.999 15.9004 455.164 33.0286 455.164C50.1568 455.164 64.0547 468.999 64.0547 486.082C64.0547 503.164 50.1568 517 33.0286 517C15.9004 517 2.00255 503.164 2.00255 486.082Z" fill="#E7CFFF" stroke="#B26FBD" stroke-width="4"/>
<path d="M827.014 784.141C814.896 772.068 795.249 772.068 783.131 784.141C771.013 796.214 771.013 815.788 783.131 827.861C795.249 839.934 814.896 839.934 827.014 827.861C839.132 815.788 839.132 796.214 827.014 784.141Z" fill="#BEC0FF" stroke="#556390" stroke-width="4"/>
<path d="M147.904 192.292C135.786 180.22 135.786 160.646 147.904 148.573C160.022 136.5 179.669 136.5 191.787 148.573C203.905 160.646 203.905 180.22 191.787 192.292C179.669 204.365 160.022 204.365 147.904 192.292Z" fill="#BEC0FF" stroke="#556390" stroke-width="4"/>
<path d="M828.154 150.719C816.036 138.646 796.389 138.646 784.272 150.719C772.154 162.792 772.154 182.366 784.272 194.439C796.389 206.512 816.036 206.512 828.154 194.439C840.272 182.366 840.272 162.792 828.154 150.719Z" fill="#BEC0FF" stroke="#556390" stroke-width="4"/>
<path d="M150.099 828.463C137.982 816.391 137.982 796.817 150.099 784.744C162.217 772.671 181.864 772.671 193.982 784.744C206.1 796.817 206.1 816.39 193.982 828.463C181.864 840.536 162.217 840.536 150.099 828.463Z" fill="#BEC0FF" stroke="#556390" stroke-width="4"/>
<path d="M480.974 134.023C464.395 134.023 450.948 147.414 450.948 163.941C450.948 180.468 464.395 193.859 480.974 193.859C497.553 193.859 511 180.468 511 163.941C511 147.414 497.553 134.023 480.974 134.023Z" fill="#A0E2FF" stroke="#07AFE4" stroke-width="2"/>
<path d="M480.974 69.9585C464.395 69.9585 450.948 83.3499 450.948 99.8767C450.948 116.404 464.395 129.795 480.974 129.795C497.553 129.795 511 116.404 511 99.8767C511 83.3498 497.553 69.9585 480.974 69.9585Z" fill="#C1BFFF" stroke="#7464D3" stroke-width="2"/>
<path d="M480.974 2.46956C463.613 2.46956 449.524 16.4932 449.524 33.8113C449.524 51.1294 463.613 65.153 480.974 65.153C498.335 65.153 512.424 51.1293 512.424 33.8113C512.424 16.4932 498.335 2.46956 480.974 2.46956Z" fill="#E7CFFF" stroke="#B26FBD" stroke-width="4.84706"/>
<path d="M480.974 835.845C464.395 835.845 450.948 822.454 450.948 805.927C450.948 789.4 464.395 776.009 480.974 776.009C497.553 776.009 511 789.4 511 805.927C511 822.454 497.553 835.845 480.974 835.845Z" fill="#FEDAA0" stroke="#EF9D3D" stroke-width="2"/>
<path d="M480.974 899.911C464.395 899.911 450.948 886.519 450.948 869.992C450.948 853.466 464.395 840.074 480.974 840.074C497.553 840.074 511 853.466 511 869.992C511 886.519 497.553 899.911 480.974 899.911Z" fill="#FFE39D" stroke="#DAAE58" stroke-width="2"/>
<path d="M480.974 967.399C463.613 967.399 449.524 953.375 449.524 936.057C449.524 918.739 463.613 904.715 480.974 904.715C498.335 904.715 512.424 918.739 512.424 936.057C512.424 953.375 498.335 967.399 480.974 967.399Z" fill="#FFA5A5" stroke="#DC6674" stroke-width="4.84706"/>
</svg>
