<svg width="30" height="30" viewBox="0 0 30 30" fill="none" xmlns="http://www.w3.org/2000/svg">
<g id="Frame">
<path id="Vector" fill-rule="evenodd" clip-rule="evenodd" d="M15 30C23.2842 30 30 23.2842 30 15C30 6.7158 23.2842 0 15 0C6.7158 0 0 6.7158 0 15C0 23.2842 6.7158 30 15 30ZM16.6485 7.5042C16.182 7.5048 15.7146 7.5054 15.2457 7.5126L15.246 7.5132C15.234 9.1242 15.2346 10.7358 15.2355 12.3492C15.2358 13.2513 15.2364 14.1537 15.2343 15.057C15.2325 15.36 15.2328 15.6627 15.2331 15.9651C15.2337 16.7787 15.2346 17.5914 15.1899 18.4065C15.1833 18.6327 15.0699 18.8316 14.9598 19.0245L14.9334 19.0707C14.5698 19.6638 13.9008 20.0688 13.2027 20.0763C12.1497 20.1693 11.1636 19.3074 11.0151 18.2817C11.0139 18.2316 11.0121 18.1809 11.0103 18.1302C11.0001 17.841 10.9896 17.5458 11.0997 17.2764C11.2563 16.8318 11.5569 16.4391 11.9526 16.1826C12.4944 15.8061 13.2192 15.75 13.8396 15.9507C13.8396 15.5553 13.8462 15.1599 13.8528 14.7648C13.8618 14.2347 13.8708 13.7046 13.8636 13.1739C12.5061 12.9201 11.0562 13.3494 10.0212 14.2509C9.108 15.0249 8.5197 16.1625 8.4072 17.3517C8.39592 17.6617 8.39842 17.972 8.4147 18.2817C8.544 19.7445 9.4323 21.1071 10.6947 21.8517C11.4567 22.3005 12.3495 22.5444 13.2435 22.4934C14.7009 22.4688 16.1199 21.6876 16.9374 20.4888C17.4456 19.7688 17.7339 18.8991 17.7828 18.0255C17.7954 16.8252 17.7948 15.6225 17.7936 14.4186C17.7936 13.7982 17.793 13.1772 17.7945 12.5562C18.1191 12.7686 18.4512 12.9762 18.8073 13.1376C19.6254 13.5255 20.5311 13.7133 21.4323 13.7427V11.2257C20.4705 11.1186 19.482 10.8012 18.7833 10.1079C18.0828 9.4314 17.7387 8.4567 17.6895 7.5C17.3427 7.503 16.9959 7.5036 16.6485 7.5042Z" fill="#F4F3F1"/>
</g>
</svg>
