<svg width="30" height="30" viewBox="0 0 30 30" fill="none" xmlns="http://www.w3.org/2000/svg">
<g id="Frame">
<path id="Vector" fill-rule="evenodd" clip-rule="evenodd" d="M15 30C23.2842 30 30 23.2842 30 15C30 6.7158 23.2842 0 15 0C6.7158 0 0 6.7158 0 15C0 23.2842 6.7158 30 15 30ZM20.8638 8.646C20.4726 8.2908 18.7842 7.23 15.2616 7.2144C15.2616 7.2144 11.0901 6.9405 9.0651 8.7744C7.938 9.8874 7.5585 11.5422 7.5168 13.5615L7.512 13.7688C7.4652 15.8343 7.3821 19.4727 10.953 20.4648L10.9371 23.5806C10.9371 23.7567 10.965 23.877 11.0655 23.9019C11.1378 23.9196 11.2461 23.8821 11.3385 23.7903C11.9289 23.1969 13.8198 20.9157 13.8198 20.9157C16.3569 21.0816 18.3756 20.5806 18.5928 20.5095C18.6438 20.4933 18.7173 20.4762 18.8088 20.4546C19.6344 20.2623 21.9198 19.7295 22.3416 16.3227C22.8255 12.4218 22.1634 9.7587 20.8638 8.646ZM14.5992 9.453C14.5998 9.38081 14.6289 9.31179 14.6804 9.2611C14.7318 9.21042 14.8012 9.18222 14.8734 9.1827C16.2489 9.1923 17.4138 9.6507 18.3486 10.5618C19.2924 11.4819 19.7574 12.7338 19.7694 14.283C19.7708 14.3195 19.7649 14.3559 19.752 14.39C19.7391 14.4242 19.7195 14.4554 19.6943 14.4818C19.6691 14.5083 19.6388 14.5293 19.6053 14.5438C19.5718 14.5583 19.5357 14.5659 19.4992 14.5662C19.4627 14.5664 19.4265 14.5593 19.3927 14.5453C19.359 14.5313 19.3285 14.5107 19.3029 14.4846C19.2773 14.4586 19.2572 14.4277 19.2438 14.3937C19.2304 14.3597 19.224 14.3234 19.2249 14.2869C19.2138 12.8499 18.7866 11.7495 17.9685 10.9518C17.1414 10.1454 16.1145 9.7359 14.8695 9.7272C14.7974 9.72657 14.7284 9.69734 14.6778 9.64593C14.6272 9.59453 14.5987 9.52514 14.5992 9.453ZM15.3114 10.3326C15.2201 10.3259 15.13 10.3558 15.0607 10.4156C14.9914 10.4754 14.9488 10.5602 14.9421 10.6515C14.9354 10.7428 14.9653 10.8329 15.0251 10.9022C15.0849 10.9715 15.1697 11.0141 15.261 11.0208C16.1364 11.0847 16.7811 11.376 17.2401 11.877C17.7024 12.3822 17.9313 13.0122 17.9145 13.7937C17.9125 13.8852 17.947 13.9737 18.0102 14.0398C18.0735 14.106 18.1605 14.1442 18.252 14.1462C18.3435 14.1482 18.432 14.1137 18.4981 14.0505C18.5643 13.9872 18.6025 13.9002 18.6045 13.8087C18.6246 12.8688 18.3435 12.0609 17.7492 11.4111C17.1462 10.7532 16.3218 10.4064 15.3114 10.3326ZM15.6582 11.6688C15.6217 11.6654 15.5848 11.6694 15.5498 11.6806C15.5149 11.6918 15.4825 11.7099 15.4548 11.7339C15.427 11.7579 15.4043 11.7873 15.3882 11.8202C15.3721 11.8532 15.3628 11.8891 15.3608 11.9258C15.3589 11.9624 15.3644 11.9991 15.377 12.0336C15.3896 12.068 15.4091 12.0996 15.4342 12.1264C15.4593 12.1532 15.4896 12.1746 15.5232 12.1894C15.5568 12.2041 15.593 12.212 15.6297 12.2124C16.0302 12.2334 16.2966 12.3498 16.4697 12.5286C16.6437 12.7086 16.7589 12.9891 16.7796 13.4094C16.7852 13.4801 16.8181 13.5458 16.8713 13.5926C16.9245 13.6394 16.9939 13.6636 17.0647 13.6601C17.1355 13.6565 17.2021 13.6256 17.2504 13.5737C17.2987 13.5219 17.325 13.4533 17.3235 13.3824C17.2986 12.8793 17.1561 12.4554 16.8609 12.15C16.5648 11.8437 16.1505 11.6943 15.6582 11.6688ZM16.1997 16.3587C16.0215 16.5783 15.6903 16.5507 15.6903 16.5507C13.2705 15.9327 12.6231 13.4817 12.6231 13.4817C12.6231 13.4817 12.594 13.1505 12.8145 12.9723L13.2519 12.6249C13.4685 12.4578 13.6068 12.0525 13.3863 11.6565C13.217 11.3594 13.0328 11.0709 12.8346 10.7922C12.6423 10.5291 12.1938 9.9909 12.192 9.9891C11.976 9.7341 11.658 9.6747 11.3226 9.8493C11.3214 9.84943 11.3202 9.84974 11.319 9.8502L11.3157 9.8511C10.98 10.0448 10.6775 10.2911 10.4199 10.5807C10.2129 10.8306 10.0944 11.0757 10.0644 11.3157C10.0581 11.351 10.0559 11.387 10.0578 11.4228C10.0569 11.529 10.0728 11.6346 10.1058 11.7354L10.1172 11.7432C10.2216 12.114 10.4832 12.732 11.0514 13.7625C11.3764 14.3585 11.7512 14.9259 12.1719 15.4587C12.3828 15.7257 12.6087 15.9807 12.8487 16.2216L12.8574 16.2306L12.8745 16.2474L12.9 16.2732L12.9258 16.2987L12.9516 16.3245C13.1928 16.5644 13.4475 16.7903 13.7145 17.001C14.2473 17.4218 14.8149 17.7968 15.411 18.1218C16.4409 18.69 17.0595 18.9516 17.43 19.056L17.4378 19.0674C17.5386 19.1004 17.6442 19.1166 17.7501 19.1154C17.7861 19.1172 17.8221 19.1151 17.8575 19.1088C18.0981 19.0803 18.3429 18.9618 18.5919 18.7536C18.5926 18.7533 18.5934 18.7529 18.594 18.7524C18.5943 18.752 18.5946 18.7516 18.5949 18.7512L18.5985 18.7488C18.8853 18.492 19.1293 18.1913 19.3215 17.8578L19.3224 17.8548C19.3228 17.8535 19.323 17.8522 19.323 17.8509C19.4979 17.5158 19.4385 17.1978 19.182 16.9812L19.1253 16.935C18.9801 16.815 18.5904 16.494 18.3792 16.3386C18.1007 16.1405 17.8124 15.9565 17.5155 15.7872C17.1195 15.5664 16.7148 15.7047 16.5471 15.9216L16.2 16.3584L16.1997 16.3587Z" fill="#F4F3F1"/>
</g>
</svg>
